<?xml version="1.0" standalone="no"?>
<!DOCTYPE svg PUBLIC "-//W3C//DTD SVG 20010904//EN"
 "http://www.w3.org/TR/2001/REC-SVG-20010904/DTD/svg10.dtd">
<svg version="1.0" xmlns="http://www.w3.org/2000/svg"
 width="260.000000pt" height="260.000000pt" viewBox="0 0 260.000000 260.000000"
 preserveAspectRatio="xMidYMid meet">
<metadata>
Created by potrace 1.11, written by Peter Selinger 2001-2013
</metadata>
<g transform="translate(0.000000,260.000000) scale(0.100000,-0.100000)"
fill="#000000" stroke="none">
<path d="M1132 2590 c-301 -43 -565 -179 -775 -400 -171 -180 -278 -385 -333
-641 -26 -118 -26 -380 0 -498 59 -273 167 -474 360 -667 193 -193 394 -301
667 -360 118 -26 380 -26 498 0 273 59 474 167 667 360 193 193 301 394 360
667 14 62 18 127 18 249 0 122 -4 187 -18 249 -59 273 -167 474 -360 667 -190
189 -384 296 -646 355 -98 22 -340 33 -438 19z m413 -100 c98 -20 212 -58 290
-97 227 -114 442 -328 555 -552 143 -287 164 -646 55 -951 -63 -174 -163 -326
-301 -460 -240 -232 -514 -343 -844 -343 -255 0 -467 64 -688 210 -140 93
-319 298 -402 462 -143 287 -164 646 -55 951 121 334 401 614 733 734 211 75
438 91 657 46z"/>
<path d="M1273 2410 c-96 -20 -178 -86 -221 -179 -32 -69 -36 -191 -8 -255 84
-197 342 -256 507 -117 l34 29 -34 35 -34 36 -48 -33 c-93 -64 -202 -53 -277
28 -101 110 -72 270 61 338 32 16 54 19 113 16 62 -3 78 -8 117 -35 l44 -32
33 34 c18 18 29 38 26 44 -16 25 -99 72 -152 86 -63 16 -96 17 -161 5z"/>
<path d="M950 1295 l0 -305 55 0 55 0 1 233 0 232 102 -203 102 -203 33 3 c33
3 36 8 138 203 l104 200 0 -232 0 -233 55 0 55 0 0 305 0 306 -85 -3 -85 -3
-88 -182 c-48 -101 -89 -183 -92 -183 -3 0 -44 83 -92 183 l-87 182 -85 3 -86
3 0 -306z"/>
<path d="M1208 806 c-91 -33 -122 -77 -122 -169 1 -96 49 -141 189 -178 115
-30 145 -49 145 -92 0 -23 -8 -41 -26 -58 -47 -44 -175 -24 -247 40 -18 15
-21 13 -55 -23 l-35 -39 24 -20 c51 -42 132 -71 208 -75 85 -5 138 8 181 44
43 37 60 75 60 136 0 99 -40 136 -207 187 -112 34 -141 58 -129 106 15 61 127
77 218 32 l49 -24 24 32 c14 17 25 37 25 43 0 6 -25 23 -57 37 -69 33 -187 43
-245 21z"/>
</g>
</svg>
